<?xml version="1.0" encoding="UTF-8" ?>
<svg version="1.1" width="64" height="64" xmlns="http://www.w3.org/2000/svg" shape-rendering="crispEdges">
<rect x="8" y="0" width="5" height="5" fill="#FFFFFF" />
<rect x="6" y="1" width="2" height="17" fill="#FFFFFF" />
<rect x="13" y="1" width="2" height="5" fill="#FFFFFF" />
<rect x="50" y="1" width="5" height="5" fill="#FFFFFF" />
<rect x="5" y="2" width="1" height="14" fill="#FFFFFF" />
<rect x="15" y="2" width="1" height="6" fill="#FFFFFF" />
<rect x="48" y="2" width="2" height="4" fill="#FFFFFF" />
<rect x="55" y="2" width="2" height="13" fill="#FFFFFF" />
<rect x="16" y="3" width="2" height="6" fill="#FFFFFF" />
<rect x="47" y="3" width="1" height="5" fill="#FFFFFF" />
<rect x="57" y="3" width="1" height="10" fill="#FFFFFF" />
<rect x="4" y="4" width="1" height="4" fill="#FFFFFF" />
<rect x="18" y="4" width="1" height="7" fill="#FFFFFF" />
<rect x="46" y="4" width="1" height="5" fill="#FFFFFF" />
<rect x="58" y="4" width="1" height="1" fill="#000000" />
<rect x="8" y="5" width="1" height="1" fill="#FFFFFF" />
<rect x="9" y="5" width="2" height="8" fill="#FF7C7C" />
<rect x="11" y="5" width="2" height="1" fill="#FFFFFF" />
<rect x="19" y="5" width="1" height="7" fill="#FFFFFF" />
<rect x="44" y="5" width="2" height="5" fill="#FFFFFF" />
<rect x="58" y="5" width="1" height="6" fill="#FFFFFF" />
<rect x="59" y="5" width="1" height="5" fill="#000000" />
<rect x="8" y="6" width="1" height="4" fill="#FF7C7C" />
<rect x="11" y="6" width="3" height="10" fill="#FF7C7C" />
<rect x="14" y="6" width="1" height="1" fill="#FFFFFF" />
<rect x="20" y="6" width="1" height="8" fill="#FFFFFF" />
<rect x="43" y="6" width="1" height="6" fill="#FFFFFF" />
<rect x="48" y="6" width="1" height="1" fill="#FFFFFF" />
<rect x="49" y="6" width="4" height="6" fill="#FF7C7C" />
<rect x="53" y="6" width="2" height="1" fill="#FFFFFF" />
<rect x="14" y="7" width="1" height="13" fill="#FF7C7C" />
<rect x="41" y="7" width="2" height="5" fill="#FFFFFF" />
<rect x="48" y="7" width="1" height="10" fill="#FF7C7C" />
<rect x="53" y="7" width="1" height="3" fill="#FF7C7C" />
<rect x="54" y="7" width="1" height="11" fill="#FFFFFF" />
<rect x="15" y="8" width="1" height="13" fill="#FF7C7C" />
<rect x="21" y="8" width="1" height="7" fill="#FFFFFF" />
<rect x="40" y="8" width="1" height="6" fill="#FFFFFF" />
<rect x="47" y="8" width="1" height="10" fill="#FF7C7C" />
<rect x="4" y="9" width="1" height="5" fill="#FFFFFF" />
<rect x="16" y="9" width="1" height="12" fill="#FF7C7C" />
<rect x="17" y="9" width="1" height="1" fill="#FFFFFF" />
<rect x="22" y="9" width="2" height="39" fill="#FFFFFF" />
<rect x="39" y="9" width="1" height="6" fill="#FFFFFF" />
<rect x="46" y="9" width="1" height="10" fill="#FF7C7C" />
<rect x="8" y="10" width="1" height="15" fill="#FFFFFF" />
<rect x="17" y="10" width="1" height="12" fill="#FF7C7C" />
<rect x="24" y="10" width="1" height="37" fill="#FFFFFF" />
<rect x="37" y="10" width="2" height="6" fill="#FFFFFF" />
<rect x="44" y="10" width="1" height="1" fill="#FFFFFF" />
<rect x="45" y="10" width="1" height="9" fill="#FF7C7C" />
<rect x="53" y="10" width="1" height="9" fill="#FFFFFF" />
<rect x="18" y="11" width="1" height="11" fill="#FF7C7C" />
<rect x="25" y="11" width="1" height="36" fill="#FFFFFF" />
<rect x="36" y="11" width="1" height="21" fill="#FFFFFF" />
<rect x="44" y="11" width="1" height="9" fill="#FF7C7C" />
<rect x="58" y="11" width="1" height="2" fill="#000000" />
<rect x="19" y="12" width="1" height="10" fill="#FF7C7C" />
<rect x="26" y="12" width="1" height="33" fill="#FFFFFF" />
<rect x="34" y="12" width="2" height="52" fill="#FFFFFF" />
<rect x="41" y="12" width="1" height="1" fill="#FFFFFF" />
<rect x="42" y="12" width="2" height="9" fill="#FF7C7C" />
<rect x="49" y="12" width="3" height="2" fill="#FF7C7C" />
<rect x="52" y="12" width="1" height="8" fill="#FFFFFF" />
<rect x="9" y="13" width="1" height="25" fill="#FFFFFF" />
<rect x="10" y="13" width="1" height="2" fill="#FF7C7C" />
<rect x="27" y="13" width="1" height="31" fill="#FFFFFF" />
<rect x="33" y="13" width="1" height="37" fill="#FFFFFF" />
<rect x="41" y="13" width="1" height="9" fill="#FF7C7C" />
<rect x="57" y="13" width="1" height="1" fill="#000000" />
<rect x="20" y="14" width="1" height="8" fill="#FF7C7C" />
<rect x="28" y="14" width="1" height="30" fill="#FFFFFF" />
<rect x="31" y="14" width="2" height="34" fill="#FFFFFF" />
<rect x="40" y="14" width="1" height="8" fill="#FF7C7C" />
<rect x="49" y="14" width="2" height="1" fill="#FF7C7C" />
<rect x="51" y="14" width="1" height="12" fill="#FFFFFF" />
<rect x="10" y="15" width="1" height="25" fill="#FFFFFF" />
<rect x="21" y="15" width="1" height="6" fill="#FF7C7C" />
<rect x="29" y="15" width="2" height="29" fill="#FFFFFF" />
<rect x="39" y="15" width="1" height="7" fill="#FF7C7C" />
<rect x="49" y="15" width="1" height="1" fill="#FF7C7C" />
<rect x="50" y="15" width="1" height="15" fill="#FFFFFF" />
<rect x="55" y="15" width="1" height="1" fill="#FFFFFF" />
<rect x="56" y="15" width="1" height="2" fill="#000000" />
<rect x="11" y="16" width="1" height="26" fill="#FFFFFF" />
<rect x="12" y="16" width="2" height="2" fill="#FF7C7C" />
<rect x="37" y="16" width="1" height="2" fill="#FFFFFF" />
<rect x="38" y="16" width="1" height="5" fill="#FF7C7C" />
<rect x="49" y="16" width="1" height="17" fill="#FFFFFF" />
<rect x="55" y="16" width="1" height="2" fill="#000000" />
<rect x="48" y="17" width="1" height="19" fill="#FFFFFF" />
<rect x="7" y="18" width="1" height="1" fill="#FFFFFF" />
<rect x="12" y="18" width="1" height="27" fill="#FFFFFF" />
<rect x="13" y="18" width="1" height="1" fill="#FF7C7C" />
<rect x="37" y="18" width="1" height="2" fill="#FF7C7C" />
<rect x="47" y="18" width="1" height="24" fill="#FFFFFF" />
<rect x="54" y="18" width="1" height="1" fill="#000000" />
<rect x="13" y="19" width="1" height="28" fill="#FFFFFF" />
<rect x="45" y="19" width="2" height="25" fill="#FFFFFF" />
<rect x="53" y="19" width="1" height="3" fill="#000000" />
<rect x="14" y="20" width="1" height="28" fill="#FFFFFF" />
<rect x="37" y="20" width="1" height="11" fill="#FFFFFF" />
<rect x="44" y="20" width="1" height="41" fill="#FFFFFF" />
<rect x="52" y="20" width="1" height="7" fill="#000000" />
<rect x="15" y="21" width="2" height="40" fill="#FFFFFF" />
<rect x="21" y="21" width="1" height="11" fill="#FFFFFF" />
<rect x="38" y="21" width="1" height="10" fill="#FFFFFF" />
<rect x="42" y="21" width="1" height="1" fill="#FF7C7C" />
<rect x="43" y="21" width="1" height="41" fill="#FFFFFF" />
<rect x="17" y="22" width="4" height="9" fill="#FFFFFF" />
<rect x="39" y="22" width="4" height="10" fill="#FFFFFF" />
<rect x="51" y="26" width="1" height="4" fill="#000000" />
<rect x="8" y="27" width="1" height="8" fill="#FFFFFF" />
<rect x="50" y="30" width="1" height="3" fill="#000000" />
<rect x="17" y="31" width="2" height="1" fill="#FFFFFF" />
<rect x="19" y="31" width="2" height="4" fill="#000000" />
<rect x="37" y="31" width="2" height="4" fill="#000000" />
<rect x="17" y="32" width="1" height="30" fill="#FFFFFF" />
<rect x="18" y="32" width="1" height="2" fill="#000000" />
<rect x="21" y="32" width="1" height="2" fill="#000000" />
<rect x="36" y="32" width="1" height="2" fill="#000000" />
<rect x="39" y="32" width="1" height="2" fill="#000000" />
<rect x="40" y="32" width="3" height="30" fill="#FFFFFF" />
<rect x="49" y="33" width="1" height="6" fill="#000000" />
<rect x="18" y="34" width="1" height="29" fill="#FFFFFF" />
<rect x="21" y="34" width="1" height="16" fill="#FFFFFF" />
<rect x="36" y="34" width="1" height="30" fill="#FFFFFF" />
<rect x="39" y="34" width="1" height="30" fill="#FFFFFF" />
<rect x="19" y="35" width="2" height="15" fill="#FFFFFF" />
<rect x="37" y="35" width="2" height="29" fill="#FFFFFF" />
<rect x="48" y="36" width="1" height="6" fill="#000000" />
<rect x="47" y="42" width="1" height="2" fill="#000000" />
<rect x="27" y="44" width="3" height="2" fill="#FF7C7C" />
<rect x="30" y="44" width="1" height="1" fill="#FFFFFF" />
<rect x="45" y="44" width="1" height="16" fill="#FFFFFF" />
<rect x="46" y="44" width="1" height="4" fill="#000000" />
<rect x="26" y="45" width="1" height="6" fill="#FF7C7C" />
<rect x="30" y="45" width="1" height="6" fill="#FF7C7C" />
<rect x="27" y="46" width="1" height="2" fill="#FF7C7C" />
<rect x="28" y="46" width="1" height="3" fill="#000000" />
<rect x="29" y="46" width="1" height="6" fill="#FF7C7C" />
<rect x="24" y="47" width="2" height="5" fill="#FF7C7C" />
<rect x="47" y="47" width="1" height="3" fill="#000000" />
<rect x="22" y="48" width="1" height="2" fill="#FFFFFF" />
<rect x="23" y="48" width="1" height="4" fill="#FF7C7C" />
<rect x="27" y="48" width="1" height="5" fill="#000000" />
<rect x="31" y="48" width="1" height="3" fill="#FF7C7C" />
<rect x="32" y="48" width="1" height="2" fill="#FFFFFF" />
<rect x="46" y="48" width="1" height="10" fill="#FFFFFF" />
<rect x="14" y="49" width="1" height="11" fill="#FFFFFF" />
<rect x="28" y="49" width="1" height="3" fill="#FF7C7C" />
<rect x="19" y="50" width="1" height="13" fill="#FFFFFF" />
<rect x="20" y="50" width="2" height="1" fill="#000000" />
<rect x="22" y="50" width="1" height="1" fill="#FF7C7C" />
<rect x="32" y="50" width="1" height="1" fill="#FF7C7C" />
<rect x="33" y="50" width="1" height="1" fill="#000000" />
<rect x="47" y="50" width="1" height="6" fill="#FFFFFF" />
<rect x="48" y="50" width="1" height="7" fill="#000000" />
<rect x="13" y="51" width="1" height="7" fill="#FFFFFF" />
<rect x="20" y="51" width="1" height="12" fill="#FFFFFF" />
<rect x="21" y="51" width="2" height="1" fill="#000000" />
<rect x="26" y="51" width="1" height="2" fill="#000000" />
<rect x="30" y="51" width="3" height="1" fill="#000000" />
<rect x="33" y="51" width="1" height="13" fill="#FFFFFF" />
<rect x="21" y="52" width="1" height="12" fill="#FFFFFF" />
<rect x="22" y="52" width="4" height="1" fill="#000000" />
<rect x="28" y="52" width="4" height="1" fill="#000000" />
<rect x="32" y="52" width="1" height="12" fill="#FFFFFF" />
<rect x="22" y="53" width="10" height="11" fill="#FFFFFF" />
<rect x="47" y="56" width="1" height="3" fill="#000000" />
<rect x="46" y="58" width="1" height="2" fill="#000000" />
<rect x="16" y="61" width="1" height="1" fill="#FFFFFF" />
<rect x="40" y="62" width="2" height="1" fill="#FFFFFF" />
</svg>