<?xml version="1.0" encoding="UTF-8" ?>
<svg version="1.1" width="64" height="64" xmlns="http://www.w3.org/2000/svg" shape-rendering="crispEdges">
<rect x="3" y="0" width="4" height="4" fill="#8F563B" />
<rect x="54" y="0" width="8" height="3" fill="#8F563B" />
<rect x="2" y="1" width="1" height="13" fill="#8F563B" />
<rect x="7" y="1" width="4" height="4" fill="#8F563B" />
<rect x="53" y="1" width="1" height="6" fill="#8F563B" />
<rect x="62" y="1" width="1" height="9" fill="#8F563B" />
<rect x="1" y="2" width="1" height="10" fill="#8F563B" />
<rect x="11" y="2" width="1" height="6" fill="#8F563B" />
<rect x="52" y="2" width="1" height="6" fill="#8F563B" />
<rect x="63" y="2" width="1" height="5" fill="#8F563B" />
<rect x="12" y="3" width="1" height="6" fill="#8F563B" />
<rect x="51" y="3" width="1" height="5" fill="#8F563B" />
<rect x="54" y="3" width="2" height="1" fill="#8F563B" />
<rect x="56" y="3" width="3" height="5" fill="#4F2F20" />
<rect x="59" y="3" width="3" height="1" fill="#8F563B" />
<rect x="3" y="4" width="2" height="1" fill="#8F563B" />
<rect x="5" y="4" width="2" height="6" fill="#4F2F20" />
<rect x="50" y="4" width="1" height="5" fill="#8F563B" />
<rect x="54" y="4" width="1" height="1" fill="#8F563B" />
<rect x="55" y="4" width="1" height="9" fill="#4F2F20" />
<rect x="59" y="4" width="1" height="3" fill="#4F2F20" />
<rect x="60" y="4" width="2" height="9" fill="#8F563B" />
<rect x="3" y="5" width="1" height="12" fill="#8F563B" />
<rect x="4" y="5" width="1" height="3" fill="#4F2F20" />
<rect x="7" y="5" width="2" height="8" fill="#4F2F20" />
<rect x="9" y="5" width="2" height="1" fill="#8F563B" />
<rect x="13" y="5" width="1" height="6" fill="#8F563B" />
<rect x="49" y="5" width="1" height="5" fill="#8F563B" />
<rect x="54" y="5" width="1" height="10" fill="#4F2F20" />
<rect x="9" y="6" width="1" height="10" fill="#4F2F20" />
<rect x="10" y="6" width="1" height="1" fill="#8F563B" />
<rect x="14" y="6" width="1" height="6" fill="#8F563B" />
<rect x="48" y="6" width="1" height="6" fill="#8F563B" />
<rect x="10" y="7" width="1" height="11" fill="#4F2F20" />
<rect x="47" y="7" width="1" height="6" fill="#8F563B" />
<rect x="53" y="7" width="1" height="9" fill="#4F2F20" />
<rect x="59" y="7" width="1" height="9" fill="#8F563B" />
<rect x="4" y="8" width="1" height="12" fill="#8F563B" />
<rect x="11" y="8" width="1" height="12" fill="#4F2F20" />
<rect x="15" y="8" width="1" height="5" fill="#8F563B" />
<rect x="46" y="8" width="1" height="6" fill="#8F563B" />
<rect x="51" y="8" width="2" height="11" fill="#4F2F20" />
<rect x="56" y="8" width="2" height="2" fill="#4F2F20" />
<rect x="58" y="8" width="1" height="10" fill="#8F563B" />
<rect x="12" y="9" width="1" height="12" fill="#4F2F20" />
<rect x="16" y="9" width="1" height="6" fill="#8F563B" />
<rect x="45" y="9" width="1" height="6" fill="#8F563B" />
<rect x="50" y="9" width="1" height="14" fill="#4F2F20" />
<rect x="5" y="10" width="1" height="12" fill="#8F563B" />
<rect x="6" y="10" width="1" height="1" fill="#4F2F20" />
<rect x="17" y="10" width="1" height="7" fill="#8F563B" />
<rect x="49" y="10" width="1" height="15" fill="#4F2F20" />
<rect x="56" y="10" width="1" height="1" fill="#4F2F20" />
<rect x="57" y="10" width="1" height="10" fill="#8F563B" />
<rect x="6" y="11" width="1" height="13" fill="#8F563B" />
<rect x="13" y="11" width="1" height="12" fill="#4F2F20" />
<rect x="18" y="11" width="1" height="16" fill="#8F563B" />
<rect x="44" y="11" width="1" height="5" fill="#8F563B" />
<rect x="56" y="11" width="1" height="11" fill="#8F563B" />
<rect x="14" y="12" width="1" height="12" fill="#4F2F20" />
<rect x="43" y="12" width="1" height="5" fill="#8F563B" />
<rect x="48" y="12" width="1" height="14" fill="#4F2F20" />
<rect x="7" y="13" width="1" height="18" fill="#8F563B" />
<rect x="8" y="13" width="1" height="2" fill="#4F2F20" />
<rect x="15" y="13" width="1" height="12" fill="#4F2F20" />
<rect x="19" y="13" width="1" height="16" fill="#8F563B" />
<rect x="42" y="13" width="1" height="7" fill="#8F563B" />
<rect x="47" y="13" width="1" height="14" fill="#4F2F20" />
<rect x="55" y="13" width="1" height="11" fill="#8F563B" />
<rect x="60" y="13" width="1" height="1" fill="#8F563B" />
<rect x="46" y="14" width="1" height="13" fill="#4F2F20" />
<rect x="8" y="15" width="1" height="21" fill="#8F563B" />
<rect x="16" y="15" width="1" height="10" fill="#4F2F20" />
<rect x="20" y="15" width="1" height="15" fill="#8F563B" />
<rect x="41" y="15" width="1" height="27" fill="#8F563B" />
<rect x="45" y="15" width="1" height="12" fill="#4F2F20" />
<rect x="54" y="15" width="1" height="11" fill="#8F563B" />
<rect x="9" y="16" width="1" height="22" fill="#8F563B" />
<rect x="40" y="16" width="1" height="26" fill="#8F563B" />
<rect x="44" y="16" width="1" height="10" fill="#4F2F20" />
<rect x="53" y="16" width="1" height="11" fill="#8F563B" />
<rect x="17" y="17" width="1" height="7" fill="#4F2F20" />
<rect x="21" y="17" width="1" height="14" fill="#8F563B" />
<rect x="24" y="17" width="16" height="9" fill="#8F563B" />
<rect x="43" y="17" width="1" height="6" fill="#4F2F20" />
<rect x="10" y="18" width="1" height="22" fill="#8F563B" />
<rect x="22" y="18" width="2" height="15" fill="#8F563B" />
<rect x="51" y="19" width="1" height="2" fill="#4F2F20" />
<rect x="52" y="19" width="1" height="13" fill="#8F563B" />
<rect x="11" y="20" width="1" height="22" fill="#8F563B" />
<rect x="42" y="20" width="1" height="2" fill="#4F2F20" />
<rect x="12" y="21" width="1" height="24" fill="#8F563B" />
<rect x="51" y="21" width="1" height="17" fill="#8F563B" />
<rect x="42" y="22" width="1" height="20" fill="#8F563B" />
<rect x="13" y="23" width="1" height="22" fill="#8F563B" />
<rect x="43" y="23" width="1" height="18" fill="#8F563B" />
<rect x="50" y="23" width="1" height="16" fill="#8F563B" />
<rect x="14" y="24" width="1" height="21" fill="#8F563B" />
<rect x="17" y="24" width="1" height="2" fill="#8F563B" />
<rect x="15" y="25" width="2" height="1" fill="#8F563B" />
<rect x="49" y="25" width="1" height="15" fill="#8F563B" />
<rect x="15" y="26" width="1" height="19" fill="#8F563B" />
<rect x="16" y="26" width="2" height="3" fill="#4F2F20" />
<rect x="24" y="26" width="7" height="2" fill="#8F563B" />
<rect x="31" y="26" width="2" height="3" fill="#4F2F20" />
<rect x="33" y="26" width="7" height="2" fill="#8F563B" />
<rect x="44" y="26" width="1" height="14" fill="#8F563B" />
<rect x="48" y="26" width="1" height="21" fill="#8F563B" />
<rect x="18" y="27" width="1" height="4" fill="#4F2F20" />
<rect x="45" y="27" width="3" height="13" fill="#8F563B" />
<rect x="24" y="28" width="6" height="1" fill="#8F563B" />
<rect x="30" y="28" width="1" height="5" fill="#4F2F20" />
<rect x="33" y="28" width="4" height="1" fill="#8F563B" />
<rect x="37" y="28" width="2" height="4" fill="#FBF236" />
<rect x="39" y="28" width="1" height="1" fill="#8F563B" />
<rect x="16" y="29" width="1" height="2" fill="#8F563B" />
<rect x="17" y="29" width="1" height="2" fill="#4F2F20" />
<rect x="19" y="29" width="1" height="4" fill="#4F2F20" />
<rect x="24" y="29" width="5" height="3" fill="#8F563B" />
<rect x="29" y="29" width="1" height="7" fill="#4F2F20" />
<rect x="31" y="29" width="1" height="2" fill="#4F2F20" />
<rect x="32" y="29" width="4" height="1" fill="#8F563B" />
<rect x="36" y="29" width="1" height="5" fill="#FBF236" />
<rect x="39" y="29" width="1" height="2" fill="#FBF236" />
<rect x="20" y="30" width="1" height="4" fill="#4F2F20" />
<rect x="32" y="30" width="3" height="1" fill="#8F563B" />
<rect x="35" y="30" width="1" height="4" fill="#FBF236" />
<rect x="16" y="31" width="3" height="3" fill="#FBF236" />
<rect x="21" y="31" width="1" height="5" fill="#4F2F20" />
<rect x="31" y="31" width="3" height="1" fill="#8F563B" />
<rect x="34" y="31" width="1" height="3" fill="#FBF236" />
<rect x="39" y="31" width="1" height="11" fill="#8F563B" />
<rect x="24" y="32" width="4" height="2" fill="#8F563B" />
<rect x="28" y="32" width="1" height="5" fill="#4F2F20" />
<rect x="31" y="32" width="2" height="12" fill="#8F563B" />
<rect x="33" y="32" width="1" height="1" fill="#FBF236" />
<rect x="37" y="32" width="1" height="1" fill="#FBF236" />
<rect x="38" y="32" width="1" height="10" fill="#8F563B" />
<rect x="19" y="33" width="1" height="3" fill="#FBF236" />
<rect x="22" y="33" width="1" height="4" fill="#4F2F20" />
<rect x="23" y="33" width="1" height="1" fill="#8F563B" />
<rect x="30" y="33" width="1" height="12" fill="#8F563B" />
<rect x="33" y="33" width="1" height="10" fill="#8F563B" />
<rect x="37" y="33" width="1" height="9" fill="#8F563B" />
<rect x="16" y="34" width="1" height="11" fill="#8F563B" />
<rect x="17" y="34" width="2" height="1" fill="#FBF236" />
<rect x="20" y="34" width="1" height="1" fill="#FBF236" />
<rect x="23" y="34" width="1" height="3" fill="#4F2F20" />
<rect x="24" y="34" width="3" height="7" fill="#8F563B" />
<rect x="27" y="34" width="1" height="3" fill="#4F2F20" />
<rect x="34" y="34" width="3" height="8" fill="#8F563B" />
<rect x="17" y="35" width="1" height="11" fill="#8F563B" />
<rect x="18" y="35" width="1" height="1" fill="#FBF236" />
<rect x="20" y="35" width="1" height="7" fill="#8F563B" />
<rect x="18" y="36" width="2" height="10" fill="#8F563B" />
<rect x="21" y="36" width="1" height="5" fill="#8F563B" />
<rect x="29" y="36" width="1" height="5" fill="#8F563B" />
<rect x="22" y="37" width="2" height="4" fill="#8F563B" />
<rect x="27" y="37" width="2" height="3" fill="#8F563B" />
<rect x="27" y="40" width="2" height="2" fill="#4F2F20" />
<rect x="44" y="40" width="2" height="2" fill="#4F2F20" />
<rect x="46" y="40" width="2" height="9" fill="#8F563B" />
<rect x="21" y="41" width="3" height="2" fill="#4F2F20" />
<rect x="24" y="41" width="2" height="1" fill="#8F563B" />
<rect x="26" y="41" width="1" height="2" fill="#4F2F20" />
<rect x="29" y="41" width="1" height="3" fill="#4F2F20" />
<rect x="43" y="41" width="1" height="9" fill="#4F2F20" />
<rect x="20" y="42" width="1" height="2" fill="#4F2F20" />
<rect x="24" y="42" width="2" height="7" fill="#4F2F20" />
<rect x="27" y="42" width="1" height="2" fill="#000000" />
<rect x="28" y="42" width="1" height="3" fill="#4F2F20" />
<rect x="34" y="42" width="9" height="2" fill="#4F2F20" />
<rect x="44" y="42" width="1" height="1" fill="#4F2F20" />
<rect x="45" y="42" width="1" height="10" fill="#8F563B" />
<rect x="21" y="43" width="1" height="2" fill="#4F2F20" />
<rect x="22" y="43" width="2" height="1" fill="#000000" />
<rect x="26" y="43" width="1" height="3" fill="#000000" />
<rect x="33" y="43" width="1" height="3" fill="#4F2F20" />
<rect x="44" y="43" width="1" height="1" fill="#8F563B" />
<rect x="20" y="44" width="1" height="2" fill="#8F563B" />
<rect x="22" y="44" width="1" height="2" fill="#4F2F20" />
<rect x="23" y="44" width="1" height="3" fill="#000000" />
<rect x="27" y="44" width="1" height="1" fill="#4F2F20" />
<rect x="29" y="44" width="1" height="1" fill="#8F563B" />
<rect x="31" y="44" width="2" height="3" fill="#4F2F20" />
<rect x="34" y="44" width="2" height="1" fill="#4F2F20" />
<rect x="36" y="44" width="2" height="1" fill="#000000" />
<rect x="38" y="44" width="4" height="2" fill="#FFFFFF" />
<rect x="42" y="44" width="1" height="2" fill="#000000" />
<rect x="44" y="44" width="1" height="4" fill="#4F2F20" />
<rect x="13" y="45" width="4" height="2" fill="#4F2F20" />
<rect x="21" y="45" width="1" height="1" fill="#8F563B" />
<rect x="27" y="45" width="2" height="1" fill="#000000" />
<rect x="29" y="45" width="2" height="2" fill="#4F2F20" />
<rect x="34" y="45" width="1" height="1" fill="#4F2F20" />
<rect x="35" y="45" width="2" height="2" fill="#FFFFFF" />
<rect x="37" y="45" width="1" height="6" fill="#000000" />
<rect x="17" y="46" width="5" height="2" fill="#4F2F20" />
<rect x="22" y="46" width="1" height="1" fill="#000000" />
<rect x="26" y="46" width="3" height="2" fill="#4F2F20" />
<rect x="33" y="46" width="2" height="2" fill="#FFFFFF" />
<rect x="38" y="46" width="4" height="2" fill="#000000" />
<rect x="42" y="46" width="1" height="6" fill="#4F2F20" />
<rect x="12" y="47" width="2" height="2" fill="#4F2F20" />
<rect x="14" y="47" width="1" height="2" fill="#000000" />
<rect x="15" y="47" width="2" height="1" fill="#4F2F20" />
<rect x="22" y="47" width="2" height="2" fill="#4F2F20" />
<rect x="29" y="47" width="1" height="1" fill="#4F2F20" />
<rect x="30" y="47" width="2" height="5" fill="#FFFFFF" />
<rect x="32" y="47" width="1" height="7" fill="#000000" />
<rect x="35" y="47" width="2" height="4" fill="#000000" />
<rect x="15" y="48" width="3" height="1" fill="#000000" />
<rect x="18" y="48" width="2" height="2" fill="#FFFFFF" />
<rect x="20" y="48" width="2" height="1" fill="#4F2F20" />
<rect x="26" y="48" width="2" height="1" fill="#4F2F20" />
<rect x="28" y="48" width="1" height="8" fill="#000000" />
<rect x="29" y="48" width="1" height="2" fill="#FFFFFF" />
<rect x="33" y="48" width="2" height="2" fill="#000000" />
<rect x="38" y="48" width="3" height="1" fill="#000000" />
<rect x="41" y="48" width="1" height="5" fill="#4F2F20" />
<rect x="44" y="48" width="1" height="6" fill="#8F563B" />
<rect x="13" y="49" width="2" height="2" fill="#4F2F20" />
<rect x="15" y="49" width="2" height="2" fill="#FFFFFF" />
<rect x="17" y="49" width="1" height="2" fill="#000000" />
<rect x="20" y="49" width="2" height="4" fill="#FFFFFF" />
<rect x="22" y="49" width="1" height="4" fill="#000000" />
<rect x="23" y="49" width="2" height="2" fill="#FFFFFF" />
<rect x="25" y="49" width="1" height="3" fill="#000000" />
<rect x="26" y="49" width="2" height="2" fill="#FFFFFF" />
<rect x="38" y="49" width="2" height="2" fill="#FFFFFF" />
<rect x="40" y="49" width="1" height="1" fill="#000000" />
<rect x="46" y="49" width="1" height="2" fill="#8F563B" />
<rect x="18" y="50" width="2" height="2" fill="#000000" />
<rect x="29" y="50" width="1" height="8" fill="#000000" />
<rect x="33" y="50" width="2" height="2" fill="#FFFFFF" />
<rect x="40" y="50" width="1" height="4" fill="#4F2F20" />
<rect x="43" y="50" width="1" height="5" fill="#8F563B" />
<rect x="14" y="51" width="4" height="2" fill="#4F2F20" />
<rect x="23" y="51" width="2" height="1" fill="#000000" />
<rect x="26" y="51" width="2" height="5" fill="#000000" />
<rect x="35" y="51" width="3" height="2" fill="#FFFFFF" />
<rect x="38" y="51" width="1" height="1" fill="#000000" />
<rect x="39" y="51" width="1" height="4" fill="#4F2F20" />
<rect x="18" y="52" width="2" height="3" fill="#4F2F20" />
<rect x="23" y="52" width="1" height="1" fill="#000000" />
<rect x="24" y="52" width="2" height="5" fill="#FFFFFF" />
<rect x="30" y="52" width="2" height="2" fill="#000000" />
<rect x="33" y="52" width="1" height="3" fill="#000000" />
<rect x="34" y="52" width="1" height="2" fill="#FFFFFF" />
<rect x="38" y="52" width="1" height="3" fill="#4F2F20" />
<rect x="42" y="52" width="1" height="4" fill="#8F563B" />
<rect x="15" y="53" width="1" height="1" fill="#8F563B" />
<rect x="16" y="53" width="2" height="1" fill="#4F2F20" />
<rect x="20" y="53" width="1" height="4" fill="#4F2F20" />
<rect x="21" y="53" width="1" height="1" fill="#000000" />
<rect x="22" y="53" width="2" height="2" fill="#FFFFFF" />
<rect x="35" y="53" width="1" height="1" fill="#FFFFFF" />
<rect x="36" y="53" width="2" height="3" fill="#4F2F20" />
<rect x="41" y="53" width="1" height="4" fill="#8F563B" />
<rect x="16" y="54" width="2" height="2" fill="#8F563B" />
<rect x="21" y="54" width="1" height="4" fill="#4F2F20" />
<rect x="30" y="54" width="1" height="1" fill="#000000" />
<rect x="31" y="54" width="2" height="2" fill="#FFFFFF" />
<rect x="34" y="54" width="1" height="1" fill="#000000" />
<rect x="35" y="54" width="1" height="3" fill="#4F2F20" />
<rect x="40" y="54" width="1" height="4" fill="#8F563B" />
<rect x="18" y="55" width="1" height="4" fill="#8F563B" />
<rect x="19" y="55" width="1" height="1" fill="#4F2F20" />
<rect x="22" y="55" width="1" height="3" fill="#4F2F20" />
<rect x="23" y="55" width="1" height="1" fill="#000000" />
<rect x="30" y="55" width="1" height="2" fill="#FFFFFF" />
<rect x="33" y="55" width="2" height="3" fill="#4F2F20" />
<rect x="38" y="55" width="2" height="4" fill="#8F563B" />
<rect x="17" y="56" width="1" height="2" fill="#8F563B" />
<rect x="19" y="56" width="1" height="5" fill="#8F563B" />
<rect x="23" y="56" width="1" height="3" fill="#4F2F20" />
<rect x="26" y="56" width="1" height="2" fill="#000000" />
<rect x="27" y="56" width="2" height="2" fill="#FFFFFF" />
<rect x="31" y="56" width="1" height="1" fill="#FFFFFF" />
<rect x="32" y="56" width="1" height="3" fill="#4F2F20" />
<rect x="36" y="56" width="1" height="1" fill="#4F2F20" />
<rect x="37" y="56" width="1" height="4" fill="#8F563B" />
<rect x="20" y="57" width="1" height="5" fill="#8F563B" />
<rect x="24" y="57" width="2" height="3" fill="#4F2F20" />
<rect x="30" y="57" width="2" height="3" fill="#4F2F20" />
<rect x="35" y="57" width="2" height="4" fill="#8F563B" />
<rect x="21" y="58" width="2" height="5" fill="#8F563B" />
<rect x="26" y="58" width="4" height="2" fill="#4F2F20" />
<rect x="33" y="58" width="1" height="1" fill="#4F2F20" />
<rect x="34" y="58" width="1" height="5" fill="#8F563B" />
<rect x="23" y="59" width="1" height="4" fill="#8F563B" />
<rect x="32" y="59" width="2" height="4" fill="#8F563B" />
<rect x="38" y="59" width="1" height="1" fill="#8F563B" />
<rect x="24" y="60" width="8" height="3" fill="#8F563B" />
<rect x="35" y="61" width="1" height="1" fill="#8F563B" />
</svg>